<?xml version="1.0" encoding="utf-8"?>
<svg version="1.1" id="Layer_1" xmlns="http://www.w3.org/2000/svg" xmlns:xlink="http://www.w3.org/1999/xlink" x="0px"
	y="0px" viewBox="0 0 545.8 1000" style="enable-background:new 0 0 545.8 1000;" xml:space="preserve">
	<style type="text/css">
		.st0 {
			fill: #0059ff;
		}

		.st1 {
			fill: #252525;
		}

		.st2 {
			fill: #FFFFFF;
		}

		@media (prefers-color-scheme: light) {
			.st2 {
				fill: #252525;
			}
		}
	</style>
	<g>
		<g>
			<path class="st0" d="M267,0.1C134.2,3.3,29.6,115,29.6,247.9v0c0,19.4,15.7,35,35,35h46.3c19.4,0,35-15.7,35-35v-1.4
			c0-68.7,53.3-127.3,122-129.9c72.2-2.7,131.8,55.2,131.8,126.8v0c0,21.9,17.7,39.6,39.6,39.6h37.2c21.9,0,39.6-17.7,39.6-39.6v0
			C516.1,107.2,403.8-3.1,267,0.1z" />
			<g>
				<path class="st2" d="M356.8,480.6v434.9c0,46.8-37.9,84.5-83.9,84.5c-46,0-83.9-37.7-83.9-84.5V480.6c0-46.8,37.9-84.5,83.9-84.5
				C318.9,396.2,356.8,433.8,356.8,480.6z" />
			</g>
		</g>
	</g>
</svg>